<?xml version="1.0" encoding="iso-8859-1"?>
<!-- Generator: Adobe Illustrator 19.0.0, SVG Export Plug-In . SVG Version: 6.00 Build 0)  -->
<svg version="1.1" id="Layer_1" xmlns="http://www.w3.org/2000/svg" xmlns:xlink="http://www.w3.org/1999/xlink" x="0px" y="0px"
	 viewBox="0 0 399.97 399.97" style="enable-background:new 0 0 399.97 399.97;" xml:space="preserve">
<g>
	<g>
		<g>
			<path d="M387.109,30.338c-8.301-8.289-19.328-12.853-31.049-12.853H77.7c-4.142,0-7.5,3.358-7.5,7.5v30.5H48.102
				c-4.142,0-7.5,3.358-7.5,7.5v27.32H23.67c-4.142,0-7.5,3.358-7.5,7.5v87.089H7.5c-4.142,0-7.5,3.358-7.5,7.5v88
				c0,4.142,3.358,7.5,7.5,7.5h8.67v87.091c0,4.142,3.358,7.5,7.5,7.5h332.39c24.212,0,43.91-19.698,43.91-43.91V61.394
				C399.97,49.66,395.404,38.632,387.109,30.338z M15,272.894v-73h42.5c20.126,0,36.5,16.374,36.5,36.5
				c0,20.126-16.374,36.5-36.5,36.5H15z M384.97,338.574c0,15.941-12.969,28.91-28.91,28.91H31.17v-79.591H57.5
				c28.397,0,51.5-23.103,51.5-51.5c0-28.397-23.103-51.5-51.5-51.5H31.17v-79.589h324.89c11.065,0,21.18-4.123,28.91-10.902
				V338.574z M361,89.873V62.984c0-4.142-3.358-7.5-7.5-7.5h-29.621c-4.142,0-7.5,3.358-7.5,7.5c0,4.142,3.358,7.5,7.5,7.5H346
				v19.819H55.602V70.484h214.68c4.142,0,7.5-3.358,7.5-7.5c0-4.142-3.358-7.5-7.5-7.5H85.2v-23h270.86
				c7.719,0,14.982,3.007,20.447,8.463c5.458,5.458,8.463,12.719,8.463,20.447C384.97,75.65,374.594,87.521,361,89.873z"/>
			<path d="M59.32,242.62c-0.096-0.065-0.178-0.12,0.018,0.013c0.19,0.128,0.106,0.071,0.01,0.006
				c5.206,3.5,12.389-0.944,11.589-7.162c-0.771-5.992-8.429-8.821-12.739-4.384c-2.897,2.814-2.896,7.786,0,10.6
				C58.533,242.038,58.917,242.343,59.32,242.62z"/>
			<path d="M302.988,57.573c-4.663-4.527-12.831-1.287-12.81,5.31c0.02,6.578,8.133,9.843,12.81,5.3
				c2.081-2.143,2.797-5.389,1.62-8.17C304.232,59.102,303.674,58.28,302.988,57.573z"/>
			<path d="M304.608,60.013C304.798,60.463,304.418,59.553,304.608,60.013L304.608,60.013z"/>
		</g>
	</g>
</g>
<g>
</g>
<g>
</g>
<g>
</g>
<g>
</g>
<g>
</g>
<g>
</g>
<g>
</g>
<g>
</g>
<g>
</g>
<g>
</g>
<g>
</g>
<g>
</g>
<g>
</g>
<g>
</g>
<g>
</g>
</svg>
